<?xml version="1.0" standalone="no"?><!DOCTYPE svg PUBLIC "-//W3C//DTD SVG 1.1//EN" "http://www.w3.org/Graphics/SVG/1.1/DTD/svg11.dtd"><svg t="1747138676449" class="icon" viewBox="0 0 1024 1024" version="1.1" xmlns="http://www.w3.org/2000/svg" p-id="1696" xmlns:xlink="http://www.w3.org/1999/xlink" width="200" height="200"><path d="M371.886869 734.745107c19.490913-22.848381 29.244045-48.734958 29.244045-77.643358 1.540076-15.994276 3.417843-44.109614-2.553149-92.40148s-23.669072-85.061304-23.669072-85.061304c-10.088776-34.280758-25.215288-62.677505-45.37749-85.190241-20.178575-22.512736-44.369533-36.807301-72.591295-42.86732l0-12.087293 114.945939-171.420161c4.701069 6.731308 11.416004 14.4542 20.162202 23.184025l245.01839 0 0 13.921058c17.994839 0.045025 35.990702-0.189312 53.985542-0.254803 9.225105-0.033769 18.456351-0.011256 27.687596 0.105401l0-13.770632c18.147312 3.373841 34.280758 5.053086 48.399313 5.053086 8.729825 0 18.643616-0.830925 29.739325-2.526543 11.096732-1.679245 17.987676-2.526543 20.673855-2.526543s11.432377 0.847298 26.222221 2.526543c14.774495 1.694595 27.213805 2.526543 37.302581 2.526543 26.89351 0 44.706201-3.181459 53.436026-9.577123 8.729825-6.379291 13.110599-14.94948 13.110599-25.710568 0-22.864754-12.43931-35.639708-37.302581-38.325887-24.87862-2.686179-63.189158-4.02978-114.945939-4.02978l-79.658248 0c-2.686179-26.205848-8.074909-47.216371-16.133446-63.013149-8.074909-15.797801-17.156752-23.695678-27.229155-23.695678-14.789844 0-24.366967 5.548366-28.732391 16.645099-4.380774 11.096732-6.5553 26.046213-6.5553 44.849464l0 25.215288c-41.683355 0-86.053911 0.176009-133.094274 0.511653-47.055712 0.335644-84.694961 0.830925-112.931049 1.503237-4.02978-4.701069-7.066953-8.058536-9.081843-10.088776-8.058536-7.387247-18.482957-12.423961-31.258934-15.110139l-121.997542-6.060019c-114.962312 0-172.427094 14.118556-172.427094 42.355667 0 16.804734 2.686179 26.89351 8.074909 30.250978l18.147312 0c6.714935 0 12.087293 2.01489 16.117073 6.043646s6.731308 12.43931 8.074909 25.215288 2.51017 30.92329 3.533476 54.44296c1.006933 23.536043 2.862187 38.997176 5.548366 46.384423 0 26.222221 2.350534 101.83534 7.051603 226.870054 1.342578 41.683355 2.01489 89.074711 2.01489 142.175093 0 28.237111 2.350534 66.210981 7.051603 113.939005 4.701069 47.711652 8.074909 72.591295 10.088776 74.621535 2.01489 1.998517 9.081843 5.036713 21.185508 9.06547 4.02978 0.671289 10.073426 2.350534 18.147312 5.036713 13.430894 0 22.512736-6.731308 27.229155-20.162202 3.357468-7.402597 5.036713-17.828041 5.036713-31.258934 0-12.774955-1.679245-23.184025-5.036713-31.258934 0-5.372358 1.679245-12.087293 5.036713-20.162202 9.402137 2.01489 20.162202 4.541433 32.265868 7.563256 12.087293 3.038196 23.855314 4.541433 35.287691 4.541433C318.771137 775.085884 349.023138 761.638617 371.886869 734.745107zM195.431018 276.976242c-2.01489-14.789844-3.709485-30.250978-5.053086-46.384423s-2.01489-33.609469-2.01489-52.42807c0-7.387247 0.335644-11.432377 1.006933-12.103666 24.87862-5.372358 42.355667-8.074909 52.444443-8.074909 4.02978 0 14.102183 1.694595 30.250978 5.053086-2.702552 3.357468-14.806217 20.833491-36.310997 52.42807C212.219379 249.074775 198.788485 269.588995 195.431018 276.976242zM307.33876 687.86438c-5.372358 7.738241-14.4542 11.592013-27.213805 11.592013-16.804734 0-32.265868-8.394181-46.384423-25.215288-5.372358-6.714935-9.06547-12.423961-11.08036-17.140379-9.417487-22.177092-14.789844-36.295648-16.133446-42.339294l0-17.140379c0-5.372358-0.687662-10.088776-2.030239-14.118556L204.496487 416.113139l9.081843 0c22.848381 11.432377 43.346227 33.273824 61.509912 65.539692 26.878161 46.400796 40.324404 103.865579 40.324404 172.427094C315.41367 668.886143 312.711118 680.142511 307.33876 687.86438z" p-id="1697" fill="#d81e06"></path><path d="M909.315004 779.11464c-16.804734-12.759605-37.302581-19.155269-61.509912-19.155269-9.417487 0-21.521153 7.738241-36.295648 23.200398-14.789844 15.445784-21.505803 31.242562-20.162202 47.376007 0 15.461133 5.196349 28.396747 15.621792 38.83754 10.425444 10.409071 24.031323 17.300015 40.836057 20.658506 2.686179 1.342578 7.066953 2.01489 13.110599 2.01489 20.162202 0 37.47859-5.884011 51.93279-17.635659 14.4542-11.784394 21.681812-26.39823 21.681812-43.874253C934.529269 809.014624 926.119739 791.890618 909.315004 779.11464z" p-id="1698" fill="#d81e06"></path><path d="M633.939213 161.517627c-0.077771 0.597611-0.154519 1.195222-0.232291 1.793856 0.585331-4.352121 1.169639-8.705266 1.75497-13.057387-5.551436 41.178865-18.029632 81.060177-34.075073 119.292943 1.650593-3.911076 3.301186-7.822153 4.951779-11.733229-28.055986 66.287729-66.639746 127.273708-110.530372 184.139857 2.560312-3.313465 5.120624-6.626931 7.679913-9.94142-15.216563 19.653619-30.981618 38.873356-47.079248 57.81066-15.001669 17.647939-29.707602 36.325323-48.00227 50.724265 3.313465-2.560312 6.626931-5.120624 9.94142-7.679913-4.533246 3.465938-9.245572 6.600325-14.243399 9.356089-18.260899 10.070356-29.097712 35.307134-22.573111 55.470359 2.62171 8.102538 6.873548 15.401782 12.631692 21.674649 7.703449 8.391111 23.249517 15.255449 34.732036 14.386662 128.110773-9.691733 256.546957-15.008832 385.021004-15.872502 36.026518-0.242524 72.055083-0.12996 108.079554 0.318248 12.495592 0.155543 25.933649-5.588275 34.732036-14.386662 8.519024-8.519024 14.934131-22.496363 14.386662-34.732036-1.204431-26.886347-21.577434-48.77589-49.118698-49.118698-128.466883-1.598404-256.982886 1.189082-385.256364 8.423857-35.970236 2.029216-71.920006 4.411473-107.845217 7.129374 8.264221 30.510898 16.527418 61.020772 24.791639 91.53167 31.234375-17.225313 53.849442-46.034453 76.458369-72.801073 24.00574-28.420283 47.246047-57.540508 69.195965-87.580684 41.835827-57.257052 76.531024-118.90204 102.45444-184.957479 6.952342-17.7165 13.054317-35.777855 18.007119-54.156434 5.861498-21.748327 9.484002-43.714617 12.374842-66.033949 1.49505-11.544941-6.568602-26.913976-14.386662-34.732036-8.519024-8.519024-22.496363-14.934131-34.732036-14.386662-12.703323 0.568958-25.87839 4.742001-34.732036 14.386662-2.560312 3.313465-5.120624 6.626931-7.679913 9.94142C636.201743 144.387481 633.966842 152.650679 633.939213 161.517627L633.939213 161.517627z" p-id="1699" fill="#d81e06"></path><path d="M614.771665 470.821135c2.091638 12.481266 3.974521 24.993231 5.664 37.534871-0.585331-4.352121-1.169639-8.705266-1.75497-13.057387 12.923334 97.206926 13.739932 195.469903 11.558244 293.357328-0.624217 28.018124-1.490957 56.030108-2.38328 84.041068 27.950586-11.577686 55.900148-23.154349 83.850733-34.732036-1.353834-1.716084-2.708692-3.431146-4.062526-5.14723-7.263427-9.201569-23.605627-14.386662-34.732036-14.386662-12.047384 0-26.438139 5.350868-34.732036 14.386662-8.592702 9.361205-14.971993 21.650089-14.386662 34.732036 0.585331 4.352121 1.169639 8.705266 1.75497 13.057387 2.334161 8.320503 6.544043 15.546068 12.631692 21.674649 1.353834 1.716084 2.708692 3.431146 4.062526 5.14723 3.313465 2.560312 6.626931 5.120624 9.94142 7.679913 3.911076 1.650593 7.822153 3.301186 11.733229 4.951779 10.698666 2.946099 21.887496 1.784646 31.982412-2.475378 18.260899-7.706519 29.562293-25.040303 30.194696-44.88835 3.457752-108.555391 6.576789-217.507826-3.384074-325.829903-3.143597-34.186613-7.534604-68.302619-13.208836-102.161774-1.914606-11.425214-12.978593-23.73968-22.573111-29.354562-10.528797-6.161327-26.045189-8.771781-37.849026-4.951779-11.885701 3.846608-23.351847 11.211343-29.354562 22.573111-1.650593 3.911076-3.301186 7.822153-4.951779 11.733229C612.432387 453.410604 612.432387 462.115869 614.771665 470.821135L614.771665 470.821135z" p-id="1700" fill="#d81e06"></path><path d="M549.507242 650.129964c-35.045167 32.409131-71.275323 63.687508-108.959597 93.000114 3.313465-2.560312 6.626931-5.120624 9.94142-7.679913-10.070356 7.761778-20.512173 15.056927-32.274054 20.029172 3.911076-1.650593 7.822153-3.301186 11.733229-4.951779-5.244444 2.087545-10.56666 3.618411-16.153912 4.450359 4.352121-0.585331 8.705266-1.169639 13.057387-1.75497-2.820232 0.333598-5.605671 0.48914-8.444323 0.465604-12.528338-0.103354-25.89681 5.551436-34.732036 14.386662-8.519024 8.519024-14.934131 22.496363-14.386662 34.732036 1.200338 26.794249 21.578458 48.891524 49.118698 49.118698 47.064922 0.388856 82.672908-31.637558 116.904547-59.583027 28.634154-23.375383 56.522318-47.653323 83.660398-72.748884 9.025561-8.346085 14.386662-22.638603 14.386662-34.732036 0-12.047384-5.350868-26.438139-14.386662-34.732036C598.732363 631.550817 569.6807 631.474069 549.507242 650.129964L549.507242 650.129964z" p-id="1701" fill="#d81e06"></path></svg>